<svg width="1024" height="1024" viewBox="0 0 120 120" fill="none" xmlns="http://www.w3.org/2000/svg">
    <rect width="120" height="120" fill="white" />
    <path d="M20 90 Q10 85 15 75 L25 80 Z" fill="#8B4513" stroke="#654321" stroke-width="2" />
    <ellipse cx="60" cy="70" rx="35" ry="30" fill="#A0522D" stroke="#654321" stroke-width="2" />
    <circle cx="60" cy="45" r="25" fill="#CD853F" stroke="#654321" stroke-width="2" />
    <circle cx="45" cy="30" r="8" fill="#8B4513" stroke="#654321" stroke-width="1.5" />
    <circle cx="75" cy="30" r="8" fill="#8B4513" stroke="#654321" stroke-width="1.5" />
    <circle cx="52" cy="42" r="4" fill="#000" />
    <circle cx="68" cy="42" r="4" fill="#000" />
    <circle cx="53" cy="41" r="1.5" fill="#FFF" />
    <circle cx="69" cy="41" r="1.5" fill="#FFF" />
    <ellipse cx="60" cy="52" rx="4" ry="3" fill="#654321" />
    <path d="M60 52 Q55 58 50 56 M60 52 Q65 58 70 56" stroke="#654321" stroke-width="2" fill="none"
        stroke-linecap="round" />
    <path d="M58 56 L58 62 M62 56 L62 62" stroke="#FFF" stroke-width="3" stroke-linecap="round" />
    <ellipse cx="40" cy="85" rx="8" ry="12" fill="#A0522D" stroke="#654321" stroke-width="2" />
    <ellipse cx="80" cy="85" rx="8" ry="12" fill="#A0522D" stroke="#654321" stroke-width="2" />
</svg>